HIERARCHY
ROOT mixamorigHips
{
	OFFSET -0.000006 0.013797 -0.952298
	CHANNELS 6 Xposition Yposition Zposition Xrotation Yrotation Zrotation
	JOINT mixamorigSpine
	{
		OFFSET 0.000000 -0.003582 -0.100588
		CHANNELS 3 Xrotation Yrotation Zrotation
		JOINT mixamorigSpine1
		{
			OFFSET 0.000000 -0.004179 -0.117353
			CHANNELS 3 Xrotation Yrotation Zrotation
			JOINT mixamorigSpine2
			{
				OFFSET 0.000000 -0.004775 -0.134117
				CHANNELS 3 Xrotation Yrotation Zrotation
				JOINT mixamorigNeck
				{
					OFFSET 0.000000 -0.005372 -0.150883
					CHANNELS 3 Xrotation Yrotation Zrotation
					JOINT mixamorigHead
					{
						OFFSET 0.000000 0.026878 -0.080856
						CHANNELS 3 Xrotation Yrotation Zrotation
						JOINT mixamorigHeadTop_End
						{
							OFFSET 0.000000 0.071467 -0.214992
							CHANNELS 3 Xrotation Yrotation Zrotation
							End Site
							{
								OFFSET 0.000000 0.000000 -0.226559
							}
						}
					}
				}
				JOINT mixamorigLeftShoulder
				{
					OFFSET 0.059491 -0.005358 -0.132371
					CHANNELS 3 Xrotation Yrotation Zrotation
					JOINT mixamorigLeftArm
					{
						OFFSET 0.119085 0.000028 0.037071
						CHANNELS 3 Xrotation Yrotation Zrotation
						JOINT mixamorigLeftForeArm
						{
							OFFSET 0.236648 -0.018909 0.018836
							CHANNELS 3 Xrotation Yrotation Zrotation
							JOINT mixamorigLeftHand
							{
								OFFSET 0.245025 0.010267 -0.012586
								CHANNELS 3 Xrotation Yrotation Zrotation
								JOINT mixamorigLeftHandThumb1
								{
									OFFSET 0.024137 0.029259 0.012050
									CHANNELS 3 Xrotation Yrotation Zrotation
									JOINT mixamorigLeftHandThumb2
									{
										OFFSET 0.019309 0.023407 0.009640
										CHANNELS 3 Xrotation Yrotation Zrotation
										JOINT mixamorigLeftHandThumb3
										{
											OFFSET 0.022790 0.016193 0.012427
											CHANNELS 3 Xrotation Yrotation Zrotation
											JOINT mixamorigLeftHandThumb4
											{
												OFFSET 0.021035 0.009885 0.005302
												CHANNELS 3 Xrotation Yrotation Zrotation
												End Site
												{
													OFFSET 0.018375 0.014263 0.005217
												}
											}
										}
									}
								}
								JOINT mixamorigLeftHandIndex1
								{
									OFFSET 0.082146 0.035642 0.003320
									CHANNELS 3 Xrotation Yrotation Zrotation
									JOINT mixamorigLeftHandIndex2
									{
										OFFSET 0.030257 0.002984 0.001789
										CHANNELS 3 Xrotation Yrotation Zrotation
										JOINT mixamorigLeftHandIndex3
										{
											OFFSET 0.027116 0.002965 0.006614
											CHANNELS 3 Xrotation Yrotation Zrotation
											JOINT mixamorigLeftHandIndex4
											{
												OFFSET 0.023223 0.002618 0.007017
												CHANNELS 3 Xrotation Yrotation Zrotation
												End Site
												{
													OFFSET 0.023231 0.002536 0.007019
												}
											}
										}
									}
								}
								JOINT mixamorigLeftHandMiddle1
								{
									OFFSET 0.084081 0.011294 0.001498
									CHANNELS 3 Xrotation Yrotation Zrotation
									JOINT mixamorigLeftHandMiddle2
									{
										OFFSET 0.031877 0.001103 0.001606
										CHANNELS 3 Xrotation Yrotation Zrotation
										JOINT mixamorigLeftHandMiddle3
										{
											OFFSET 0.029664 0.001331 0.008371
											CHANNELS 3 Xrotation Yrotation Zrotation
											JOINT mixamorigLeftHandMiddle4
											{
												OFFSET 0.026108 0.001133 0.006502
												CHANNELS 3 Xrotation Yrotation Zrotation
												End Site
												{
													OFFSET 0.026109 0.001100 0.006503
												}
											}
										}
									}
								}
								JOINT mixamorigLeftHandRing1
								{
									OFFSET 0.084656 -0.009052 0.001316
									CHANNELS 3 Xrotation Yrotation Zrotation
									JOINT mixamorigLeftHandRing2
									{
										OFFSET 0.027244 -0.000127 0.002991
										CHANNELS 3 Xrotation Yrotation Zrotation
										JOINT mixamorigLeftHandRing3
										{
											OFFSET 0.026257 0.000074 0.008425
											CHANNELS 3 Xrotation Yrotation Zrotation
											JOINT mixamorigLeftHandRing4
											{
												OFFSET 0.022793 -0.000137 0.001611
												CHANNELS 3 Xrotation Yrotation Zrotation
												End Site
												{
													OFFSET 0.022793 -0.000107 0.001611
												}
											}
										}
									}
								}
								JOINT mixamorigLeftHandPinky1
								{
									OFFSET 0.081498 -0.028806 0.004640
									CHANNELS 3 Xrotation Yrotation Zrotation
									JOINT mixamorigLeftHandPinky2
									{
										OFFSET 0.025161 -0.000778 0.002251
										CHANNELS 3 Xrotation Yrotation Zrotation
										JOINT mixamorigLeftHandPinky3
										{
											OFFSET 0.019282 -0.000485 0.005416
											CHANNELS 3 Xrotation Yrotation Zrotation
											JOINT mixamorigLeftHandPinky4
											{
												OFFSET 0.017828 -0.000447 0.005088
												CHANNELS 3 Xrotation Yrotation Zrotation
												End Site
												{
													OFFSET 0.017828 -0.000459 0.005088
												}
											}
										}
									}
								}
							}
						}
					}
				}
				JOINT mixamorigRightShoulder
				{
					OFFSET -0.059491 -0.005387 -0.132371
					CHANNELS 3 Xrotation Yrotation Zrotation
					JOINT mixamorigRightArm
					{
						OFFSET -0.119085 -0.000028 0.037071
						CHANNELS 3 Xrotation Yrotation Zrotation
						JOINT mixamorigRightForeArm
						{
							OFFSET -0.236648 -0.019526 0.018836
							CHANNELS 3 Xrotation Yrotation Zrotation
							JOINT mixamorigRightHand
							{
								OFFSET -0.245025 0.011096 -0.012586
								CHANNELS 3 Xrotation Yrotation Zrotation
								JOINT mixamorigRightHandThumb1
								{
									OFFSET -0.023201 0.029249 0.012102
									CHANNELS 3 Xrotation Yrotation Zrotation
									JOINT mixamorigRightHandThumb2
									{
										OFFSET -0.018561 0.023399 0.009682
										CHANNELS 3 Xrotation Yrotation Zrotation
										JOINT mixamorigRightHandThumb3
										{
											OFFSET -0.023514 0.015570 0.012040
											CHANNELS 3 Xrotation Yrotation Zrotation
											JOINT mixamorigRightHandThumb4
											{
												OFFSET -0.019592 0.012930 0.010370
												CHANNELS 3 Xrotation Yrotation Zrotation
												End Site
												{
													OFFSET -0.017957 0.015176 0.010286
												}
											}
										}
									}
								}
								JOINT mixamorigRightHandIndex1
								{
									OFFSET -0.082646 0.035881 0.002744
									CHANNELS 3 Xrotation Yrotation Zrotation
									JOINT mixamorigRightHandIndex2
									{
										OFFSET -0.030501 0.002419 0.002298
										CHANNELS 3 Xrotation Yrotation Zrotation
										JOINT mixamorigRightHandIndex3
										{
											OFFSET -0.026764 0.002375 0.007124
											CHANNELS 3 Xrotation Yrotation Zrotation
											JOINT mixamorigRightHandIndex4
											{
												OFFSET -0.024278 0.002088 0.005123
												CHANNELS 3 Xrotation Yrotation Zrotation
												End Site
												{
													OFFSET -0.024279 0.002081 0.005124
												}
											}
										}
									}
								}
								JOINT mixamorigRightHandMiddle1
								{
									OFFSET -0.085786 0.011535 0.000944
									CHANNELS 3 Xrotation Yrotation Zrotation
									JOINT mixamorigRightHandMiddle2
									{
										OFFSET -0.032178 0.001536 0.002411
										CHANNELS 3 Xrotation Yrotation Zrotation
										JOINT mixamorigRightHandMiddle3
										{
											OFFSET -0.029035 0.001648 0.008346
											CHANNELS 3 Xrotation Yrotation Zrotation
											JOINT mixamorigRightHandMiddle4
											{
												OFFSET -0.025822 0.001463 0.007351
												CHANNELS 3 Xrotation Yrotation Zrotation
												End Site
												{
													OFFSET -0.025822 0.001456 0.007351
												}
											}
										}
									}
								}
								JOINT mixamorigRightHandRing1
								{
									OFFSET -0.088290 -0.009220 0.001245
									CHANNELS 3 Xrotation Yrotation Zrotation
									JOINT mixamorigRightHandRing2
									{
										OFFSET -0.026564 0.000001 0.003076
										CHANNELS 3 Xrotation Yrotation Zrotation
										JOINT mixamorigRightHandRing3
										{
											OFFSET -0.024770 0.000192 0.008867
											CHANNELS 3 Xrotation Yrotation Zrotation
											JOINT mixamorigRightHandRing4
											{
												OFFSET -0.021390 0.000021 0.003051
												CHANNELS 3 Xrotation Yrotation Zrotation
												End Site
												{
													OFFSET -0.021390 0.000012 0.003051
												}
											}
										}
									}
								}
								JOINT mixamorigRightHandPinky1
								{
									OFFSET -0.079619 -0.028707 0.006167
									CHANNELS 3 Xrotation Yrotation Zrotation
									JOINT mixamorigRightHandPinky2
									{
										OFFSET -0.025095 -0.000294 0.000364
										CHANNELS 3 Xrotation Yrotation Zrotation
										JOINT mixamorigRightHandPinky3
										{
											OFFSET -0.020337 -0.000091 0.005203
											CHANNELS 3 Xrotation Yrotation Zrotation
											JOINT mixamorigRightHandPinky4
											{
												OFFSET -0.017715 -0.000059 0.005179
												CHANNELS 3 Xrotation Yrotation Zrotation
												End Site
												{
													OFFSET -0.017715 -0.000044 0.005178
												}
											}
										}
									}
								}
							}
						}
					}
				}
			}
		}
	}
	JOINT mixamorigLeftUpLeg
	{
		OFFSET 0.093921 -0.000932 0.055722
		CHANNELS 3 Xrotation Yrotation Zrotation
		JOINT mixamorigLeftLeg
		{
			OFFSET 0.031469 -0.027343 0.421125
			CHANNELS 3 Xrotation Yrotation Zrotation
			JOINT mixamorigLeftFoot
			{
				OFFSET 0.023493 -0.015151 0.389996
				CHANNELS 3 Xrotation Yrotation Zrotation
				JOINT mixamorigLeftToeBase
				{
					OFFSET 0.017713 0.125047 0.075344
					CHANNELS 3 Xrotation Yrotation Zrotation
					JOINT mixamorigLeftToe_End
					{
						OFFSET 0.006066 0.059176 -0.002505
						CHANNELS 3 Xrotation Yrotation Zrotation
						End Site
						{
							OFFSET 0.006066 0.059176 -0.002505
						}
					}
				}
			}
		}
	}
	JOINT mixamorigRightUpLeg
	{
		OFFSET -0.093921 -0.000152 0.055722
		CHANNELS 3 Xrotation Yrotation Zrotation
		JOINT mixamorigRightLeg
		{
			OFFSET -0.031469 -0.028501 0.421125
			CHANNELS 3 Xrotation Yrotation Zrotation
			JOINT mixamorigRightFoot
			{
				OFFSET -0.023493 -0.013412 0.389996
				CHANNELS 3 Xrotation Yrotation Zrotation
				JOINT mixamorigRightToeBase
				{
					OFFSET -0.017713 0.123797 0.075342
					CHANNELS 3 Xrotation Yrotation Zrotation
					JOINT mixamorigRightToe_End
					{
						OFFSET -0.006066 0.060006 -0.002506
						CHANNELS 3 Xrotation Yrotation Zrotation
						End Site
						{
							OFFSET -0.006066 0.060006 -0.002506
						}
					}
				}
			}
		}
	}
}
MOTION
Frames: 4
Frame Time: 0.033333
-0.000006 0.013797 -0.952298 -3.829861 -2.884609 -1.787945 3.366414 2.315110 -1.525669 1.155002 1.552945 -0.330847 1.133277 1.550904 -0.353412 5.622110 0.463897 0.066620 -7.553154 -0.084331 -1.374706 0.000000 -0.000000 0.000000 4.746293 -11.600442 17.822163 40.302651 -58.823570 45.442294 -0.426060 -7.466271 -5.538127 -31.682471 -3.917807 -2.570015 7.904376 -0.169305 -12.954168 4.997000 19.844580 -14.056667 -10.999837 -3.448588 5.543775 -0.000001 -0.000000 -0.000002 0.279418 -5.203884 3.091033 0.921899 -7.117245 -1.983219 0.736353 -4.919798 -0.790818 -0.000000 0.000001 0.000000 1.030410 -13.843481 3.399642 0.435642 -4.556648 -2.029681 1.061105 -20.184109 -1.269895 -0.000000 0.000006 -0.000000 0.859102 -15.918236 4.641198 0.290232 -9.407255 -2.251928 -0.175798 -31.623687 -1.227907 0.000000 0.000000 -0.000001 1.507890 -22.999199 4.364251 0.040822 -6.850762 -1.884466 -0.210675 -16.286557 -1.497636 0.000001 -0.000001 -0.000001 5.120821 14.028590 -15.828023 45.756755 46.261179 -46.444767 -0.170178 7.477737 0.615977 -17.008834 4.141375 4.489070 6.063829 -0.766768 11.547600 6.629869 -16.885064 16.027841 -15.952942 -12.261952 3.508284 0.000002 -0.000000 -0.000009 -0.064034 3.107232 -4.668251 0.700799 6.900953 1.048242 0.990012 11.014114 0.014433 0.000004 0.000002 -0.000001 0.821620 11.417059 -3.526219 0.440969 5.735540 1.067964 1.168628 18.604993 0.406565 0.000002 0.000007 0.000003 0.833703 14.599050 -5.583060 0.230982 7.906467 1.198733 0.133211 29.516878 0.298738 0.000003 0.000001 0.000002 2.436928 26.326049 -5.164827 0.063897 3.961637 0.971740 0.026436 14.631431 0.572168 -0.000001 0.000000 0.000001 -10.832779 6.451100 -14.497871 14.286509 4.088634 -3.031896 0.938469 -3.459469 -0.608433 -4.933189 -0.000005 0.000000 0.000000 -0.000001 0.000003 -0.203519 6.934362 10.398900 5.094310 -3.270204 10.093895 -2.109012 -0.946644 1.424733 -7.273564 0.000008 0.000014 -0.000000 -0.000000 0.000003 
-0.000006 0.013797 -0.952298 -3.830198 -2.884664 -1.787951 3.379935 2.331183 -1.533594 1.118651 1.552945 -0.330848 1.096909 1.550903 -0.353412 5.533968 0.435602 0.066621 -7.574225 -0.131895 -1.362489 0.000000 -0.000000 -0.000001 4.745965 -11.580512 17.816881 40.483515 -58.735556 45.557744 -0.419900 -7.466835 -5.417819 -31.645288 -3.932671 -2.646443 7.866581 -0.103813 -12.911488 5.002451 19.849143 -14.067748 -10.997221 -3.445599 5.527397 -0.000003 0.000002 -0.000004 0.282131 -5.225379 3.073386 0.918370 -7.080125 -1.980649 0.731793 -4.882753 -0.788262 -0.000000 0.000001 0.000001 1.026794 -13.826466 3.446390 0.435525 -4.553023 -2.029399 1.060936 -20.180450 -1.269647 0.000000 -0.000003 -0.000000 0.864692 -15.993982 4.635640 0.289393 -9.501019 -2.260163 -0.178104 -31.717394 -1.237762 -0.000000 0.000004 0.000000 1.481800 -22.698091 4.435909 0.041440 -6.832236 -1.882762 -0.210160 -16.267933 -1.495857 -0.000000 0.000001 0.000000 5.071517 13.884319 -15.751388 45.962962 46.320922 -46.585763 -0.161154 7.477764 0.440829 -16.878695 4.155597 4.581091 6.016061 -0.819976 11.482198 6.668164 -16.891413 16.093939 -15.960043 -12.258357 3.488395 -0.000003 0.000001 -0.000008 -0.047447 3.333859 -4.720670 0.699443 6.883655 1.047866 0.988570 10.998904 0.014216 -0.000001 -0.000002 0.000001 0.827802 11.530222 -3.577015 0.439951 5.714028 1.067374 1.167379 18.584624 0.406313 0.000002 0.000002 0.000003 0.813246 14.399905 -5.607876 0.230993 7.817204 1.195529 0.133055 29.427610 0.295289 0.000000 -0.000000 0.000000 2.363877 25.548796 -4.927887 0.069570 3.536055 0.958030 0.028284 14.209321 0.558713 -0.000002 0.000000 0.000003 -10.823671 6.425612 -14.497637 14.233533 4.089502 -3.043793 0.978691 -3.460565 -0.611244 -4.954275 -0.000001 -0.000015 0.000001 -0.000001 0.000001 -0.211939 6.913744 10.413573 5.074770 -3.254188 10.081211 -2.078394 -0.950441 1.423431 -7.260722 0.000008 0.000015 0.000000 0.000001 -0.000003 
-0.000006 0.013797 -0.952298 -3.847614 -2.884104 -1.787911 3.412986 2.359120 -1.539512 1.084348 1.552945 -0.330847 1.062593 1.550904 -0.353412 5.434971 0.388478 0.063705 -7.596851 -0.171850 -1.381388 0.000000 0.000000 -0.000000 4.746257 -11.595803 17.805603 40.579154 -58.631744 45.580048 -0.411973 -7.467539 -5.263379 -31.703542 -3.926496 -2.784695 7.976377 -0.104021 -13.071577 5.084982 19.829214 -14.179591 -10.996160 -3.444383 5.520784 -0.000001 -0.000000 -0.000001 0.297306 -5.392450 3.046529 0.921022 -7.108041 -1.982587 0.735232 -4.910526 -0.790178 0.000000 -0.000002 0.000001 1.050225 -14.078399 3.350322 0.436637 -4.586791 -2.032077 1.062438 -20.214266 -1.271929 -0.000000 0.000003 -0.000001 0.874851 -16.184435 4.655000 0.290055 -9.427964 -2.253746 -0.176308 -31.644321 -1.230073 -0.000000 0.000006 0.000000 1.403467 -22.047402 4.807847 0.044777 -6.732751 -1.873630 -0.207436 -16.167346 -1.486272 -0.000000 0.000005 -0.000001 5.014332 13.717848 -15.658762 46.127433 46.390297 -46.753321 -0.154775 7.477758 0.316410 -16.804108 4.112677 4.701757 5.997294 -0.852637 11.459085 6.635694 -16.888785 16.043314 -15.934874 -12.271041 3.558787 0.000002 -0.000001 -0.000012 -0.040040 3.422886 -4.729106 0.710854 7.027458 1.050976 1.002140 11.142931 0.016262 -0.000001 0.000001 0.000001 0.825406 11.552065 -3.633823 0.438082 5.675136 1.066298 1.165048 18.547003 0.405830 0.000002 0.000004 -0.000001 0.794414 14.318601 -5.703453 0.230993 7.901343 1.198548 0.133174 29.511700 0.298534 0.000000 0.000003 0.000001 2.323397 25.075356 -4.563823 0.077757 2.906800 0.937846 0.030840 13.585624 0.538914 0.000000 -0.000002 -0.000001 -10.815944 6.436032 -14.510698 14.222132 4.089688 -3.017306 1.002934 -3.439650 -0.611766 -4.972494 -0.000002 0.000009 0.000001 -0.000000 0.000004 -0.252650 6.919014 10.410145 5.159300 -3.259137 10.097356 -2.107714 -0.955040 1.423187 -7.260987 0.000012 -0.000002 -0.000001 0.000001 -0.000002 
-0.000006 0.013797 -0.952298 -3.860841 -2.883620 -1.791628 3.424034 2.374507 -1.538550 1.043619 1.552944 -0.330847 1.021836 1.550903 -0.353412 5.345211 0.349289 0.056701 -7.537482 -0.160927 -1.401771 0.000000 -0.000000 0.000000 4.745957 -11.577259 17.798959 40.700623 -58.573216 45.606727 -0.403261 -7.468296 -5.093083 -31.715003 -3.907251 -2.934788 8.043156 -0.050699 -13.179239 5.131310 19.817804 -14.242757 -10.992105 -3.439773 5.495369 -0.000001 0.000001 -0.000001 0.305893 -5.467273 3.001012 0.921940 -7.117642 -1.983259 0.736387 -4.920003 -0.790824 -0.000000 0.000003 0.000000 1.068657 -14.282432 3.283020 0.437707 -4.619855 -2.034699 1.063898 -20.247276 -1.274162 0.000000 -0.000001 -0.000000 0.872249 -16.290375 4.736495 0.291321 -9.284432 -2.241152 -0.172798 -31.500682 -1.214996 -0.000000 0.000004 0.000000 1.320874 -21.309985 5.170874 0.044707 -6.734902 -1.873831 -0.207460 -16.168029 -1.486330 0.000000 -0.000001 -0.000001 4.964508 13.578447 -15.565397 46.299394 46.436926 -46.873830 -0.143521 7.477733 0.098092 -16.650266 4.084511 4.866384 6.032831 -0.761484 11.496247 6.898686 -16.871274 16.442697 -15.904049 -12.281945 3.611847 0.000004 -0.000002 -0.000011 -0.003131 3.861738 -4.764643 0.700917 6.902240 1.048279 0.990526 11.019646 0.014509 -0.000004 -0.000001 0.000002 0.828619 11.659567 -3.716991 0.436800 5.648070 1.065560 1.163489 18.521791 0.405515 -0.000002 0.000004 -0.000002 0.781801 14.092803 -5.645731 0.231005 7.798832 1.194871 0.133027 29.409261 0.294571 -0.000002 0.000002 0.000001 2.275836 24.595971 -4.597763 0.079391 2.780497 0.933817 0.031319 13.458705 0.534891 0.000000 0.000002 0.000001 -10.800143 6.424910 -14.513117 14.186872 4.090256 -3.003185 1.030420 -3.422535 -0.612183 -4.984708 0.000001 -0.000008 0.000002 -0.000000 0.000001 -0.274191 6.913604 10.409958 5.193325 -3.269151 10.108308 -2.105134 -0.945477 1.421860 -7.242642 0.000008 0.000013 0.000000 0.000001 -0.000000 
